<mxfile host="app.diagrams.net" modified="2022-08-23T14:42:46.344Z" agent="5.0 (Windows)" etag="ol0-EPTm2PpgKNieNcjm" version="20.2.6" type="github">
  <diagram id="ZNflzKaAC1sKStnK_mga" name="Seite-1">
    <mxGraphModel dx="1422" dy="780" grid="1" gridSize="10" guides="1" tooltips="1" connect="1" arrows="1" fold="1" page="1" pageScale="1" pageWidth="827" pageHeight="1169" math="0" shadow="0">
      <root>
        <mxCell id="0" />
        <mxCell id="1" parent="0" />
        <mxCell id="imS26jjorNC5Hw5l4eBf-1" value="&lt;font style=&quot;font-size: 20px;&quot;&gt;Powertac Server&lt;/font&gt;" style="rounded=0;whiteSpace=wrap;html=1;fillColor=#ffe6cc;strokeColor=#d79b00;" vertex="1" parent="1">
          <mxGeometry x="210" y="50" width="240" height="50" as="geometry" />
        </mxCell>
        <mxCell id="imS26jjorNC5Hw5l4eBf-2" value="" style="rounded=0;whiteSpace=wrap;html=1;fontSize=20;fillColor=#d5e8d4;strokeColor=#82b366;align=left;" vertex="1" parent="1">
          <mxGeometry x="40" y="150" width="780" height="570" as="geometry" />
        </mxCell>
        <mxCell id="imS26jjorNC5Hw5l4eBf-3" value="Java Part" style="rounded=1;whiteSpace=wrap;html=1;fontSize=20;" vertex="1" parent="1">
          <mxGeometry x="70" y="280" width="260" height="210" as="geometry" />
        </mxCell>
        <mxCell id="imS26jjorNC5Hw5l4eBf-4" value="IS3 Broker" style="text;html=1;strokeColor=none;fillColor=none;align=center;verticalAlign=middle;whiteSpace=wrap;rounded=0;fontSize=20;" vertex="1" parent="1">
          <mxGeometry x="60" y="180" width="110" height="30" as="geometry" />
        </mxCell>
        <mxCell id="imS26jjorNC5Hw5l4eBf-6" value="&lt;div&gt;Seq2Seq Python Predictor&lt;/div&gt;" style="rounded=1;whiteSpace=wrap;html=1;fontSize=20;" vertex="1" parent="1">
          <mxGeometry x="540" y="280" width="220" height="120" as="geometry" />
        </mxCell>
        <mxCell id="imS26jjorNC5Hw5l4eBf-7" value="RL Python Part" style="rounded=1;whiteSpace=wrap;html=1;fontSize=20;" vertex="1" parent="1">
          <mxGeometry x="414" y="510" width="340" height="160" as="geometry" />
        </mxCell>
        <mxCell id="imS26jjorNC5Hw5l4eBf-8" value="" style="shape=flexArrow;endArrow=classic;html=1;rounded=0;fontSize=20;exitX=0.188;exitY=1.02;exitDx=0;exitDy=0;exitPerimeter=0;fillColor=#A3A3A3;" edge="1" parent="1" source="imS26jjorNC5Hw5l4eBf-1" target="imS26jjorNC5Hw5l4eBf-3">
          <mxGeometry width="50" height="50" relative="1" as="geometry">
            <mxPoint x="340" y="420" as="sourcePoint" />
            <mxPoint x="390" y="370" as="targetPoint" />
          </mxGeometry>
        </mxCell>
        <mxCell id="imS26jjorNC5Hw5l4eBf-9" value="Messages" style="text;html=1;strokeColor=none;fillColor=none;align=center;verticalAlign=middle;whiteSpace=wrap;rounded=0;fontSize=20;" vertex="1" parent="1">
          <mxGeometry x="120" y="110" width="140" height="30" as="geometry" />
        </mxCell>
        <mxCell id="imS26jjorNC5Hw5l4eBf-11" value="" style="shape=flexArrow;endArrow=classic;html=1;rounded=0;fontSize=20;fillColor=#A3A3A3;entryX=0.045;entryY=0.25;entryDx=0;entryDy=0;entryPerimeter=0;exitX=1;exitY=0.25;exitDx=0;exitDy=0;" edge="1" parent="1" source="imS26jjorNC5Hw5l4eBf-3" target="imS26jjorNC5Hw5l4eBf-6">
          <mxGeometry width="50" height="50" relative="1" as="geometry">
            <mxPoint x="370" y="390" as="sourcePoint" />
            <mxPoint x="420" y="340" as="targetPoint" />
          </mxGeometry>
        </mxCell>
        <mxCell id="imS26jjorNC5Hw5l4eBf-12" value="&lt;div&gt;Timeslot Data&lt;/div&gt;&lt;div&gt;Per SQL&lt;/div&gt;" style="text;html=1;strokeColor=none;fillColor=none;align=center;verticalAlign=middle;whiteSpace=wrap;rounded=0;fontSize=20;" vertex="1" parent="1">
          <mxGeometry x="334" y="250" width="206" height="60" as="geometry" />
        </mxCell>
        <mxCell id="imS26jjorNC5Hw5l4eBf-13" value="&lt;div&gt;Prediction/&lt;/div&gt;&lt;div&gt;Observation for Wholesale&lt;br&gt;&lt;/div&gt;" style="text;html=1;strokeColor=none;fillColor=none;align=center;verticalAlign=middle;whiteSpace=wrap;rounded=0;fontSize=20;" vertex="1" parent="1">
          <mxGeometry x="660" y="420" width="60" height="70" as="geometry" />
        </mxCell>
        <mxCell id="imS26jjorNC5Hw5l4eBf-14" value="" style="shape=flexArrow;endArrow=classic;html=1;rounded=0;fontSize=20;fillColor=#A3A3A3;" edge="1" parent="1" source="imS26jjorNC5Hw5l4eBf-6" target="imS26jjorNC5Hw5l4eBf-7">
          <mxGeometry width="50" height="50" relative="1" as="geometry">
            <mxPoint x="660" y="480" as="sourcePoint" />
            <mxPoint x="710" y="430" as="targetPoint" />
          </mxGeometry>
        </mxCell>
        <mxCell id="imS26jjorNC5Hw5l4eBf-15" value="" style="shape=flexArrow;endArrow=classic;html=1;rounded=0;fontSize=20;fillColor=#A3A3A3;" edge="1" parent="1" source="imS26jjorNC5Hw5l4eBf-3" target="imS26jjorNC5Hw5l4eBf-7">
          <mxGeometry width="50" height="50" relative="1" as="geometry">
            <mxPoint x="340" y="420" as="sourcePoint" />
            <mxPoint x="390" y="370" as="targetPoint" />
          </mxGeometry>
        </mxCell>
        <mxCell id="imS26jjorNC5Hw5l4eBf-16" value="Action Request " style="text;html=1;strokeColor=none;fillColor=none;align=center;verticalAlign=middle;whiteSpace=wrap;rounded=0;fontSize=20;" vertex="1" parent="1">
          <mxGeometry x="370" y="420" width="60" height="30" as="geometry" />
        </mxCell>
        <mxCell id="imS26jjorNC5Hw5l4eBf-17" value="" style="shape=flexArrow;endArrow=classic;html=1;rounded=0;fontSize=20;fillColor=#f8cecc;exitX=0;exitY=0.75;exitDx=0;exitDy=0;strokeColor=#b85450;" edge="1" parent="1" source="imS26jjorNC5Hw5l4eBf-7" target="imS26jjorNC5Hw5l4eBf-3">
          <mxGeometry width="50" height="50" relative="1" as="geometry">
            <mxPoint x="270" y="600" as="sourcePoint" />
            <mxPoint x="320" y="550" as="targetPoint" />
          </mxGeometry>
        </mxCell>
        <mxCell id="imS26jjorNC5Hw5l4eBf-18" value="" style="shape=flexArrow;endArrow=classic;html=1;rounded=0;fontSize=20;fillColor=#f8cecc;entryX=0.5;entryY=1;entryDx=0;entryDy=0;strokeColor=#b85450;" edge="1" parent="1" source="imS26jjorNC5Hw5l4eBf-3" target="imS26jjorNC5Hw5l4eBf-1">
          <mxGeometry width="50" height="50" relative="1" as="geometry">
            <mxPoint x="320" y="260" as="sourcePoint" />
            <mxPoint x="370" y="210" as="targetPoint" />
          </mxGeometry>
        </mxCell>
        <mxCell id="imS26jjorNC5Hw5l4eBf-19" value="" style="shape=flexArrow;endArrow=classic;html=1;rounded=0;fontSize=20;fillColor=#f8cecc;strokeColor=#b85450;" edge="1" parent="1" target="imS26jjorNC5Hw5l4eBf-20">
          <mxGeometry width="50" height="50" relative="1" as="geometry">
            <mxPoint x="570" y="70" as="sourcePoint" />
            <mxPoint x="630" y="70" as="targetPoint" />
          </mxGeometry>
        </mxCell>
        <mxCell id="imS26jjorNC5Hw5l4eBf-20" value="Color for &quot;after Action&quot;" style="text;html=1;strokeColor=none;fillColor=none;align=center;verticalAlign=middle;whiteSpace=wrap;rounded=0;fontSize=20;" vertex="1" parent="1">
          <mxGeometry x="600" y="55" width="180" height="30" as="geometry" />
        </mxCell>
        <mxCell id="imS26jjorNC5Hw5l4eBf-21" value="" style="shape=flexArrow;endArrow=classic;html=1;rounded=0;fontSize=20;fillColor=#A3A3A3;" edge="1" parent="1">
          <mxGeometry width="50" height="50" relative="1" as="geometry">
            <mxPoint x="560" y="120" as="sourcePoint" />
            <mxPoint x="600" y="120" as="targetPoint" />
          </mxGeometry>
        </mxCell>
        <mxCell id="imS26jjorNC5Hw5l4eBf-22" value="Color for &quot;before action" style="text;html=1;strokeColor=none;fillColor=none;align=center;verticalAlign=middle;whiteSpace=wrap;rounded=0;fontSize=20;" vertex="1" parent="1">
          <mxGeometry x="620" y="110" width="150" height="30" as="geometry" />
        </mxCell>
        <mxCell id="imS26jjorNC5Hw5l4eBf-23" value="Order" style="text;html=1;strokeColor=none;fillColor=none;align=center;verticalAlign=middle;whiteSpace=wrap;rounded=0;fontSize=20;" vertex="1" parent="1">
          <mxGeometry x="300" y="190" width="60" height="30" as="geometry" />
        </mxCell>
        <mxCell id="imS26jjorNC5Hw5l4eBf-24" value="Action" style="text;html=1;strokeColor=none;fillColor=none;align=center;verticalAlign=middle;whiteSpace=wrap;rounded=0;fontSize=20;" vertex="1" parent="1">
          <mxGeometry x="290" y="575" width="60" height="30" as="geometry" />
        </mxCell>
      </root>
    </mxGraphModel>
  </diagram>
</mxfile>
